<?xml version="1.0" encoding="UTF-8"?>
<!DOCTYPE svg PUBLIC "-//W3C//DTD SVG 1.1//EN" "http://www.w3.org/Graphics/SVG/1.1/DTD/svg11.dtd">
<!-- Creator: CorelDRAW 2021 (64-Bit) -->
<svg xmlns="http://www.w3.org/2000/svg" xml:space="preserve" width="500px" height="500px" version="1.1" style="shape-rendering:geometricPrecision; text-rendering:geometricPrecision; image-rendering:optimizeQuality; fill-rule:evenodd; clip-rule:evenodd"
viewBox="0 0 500 500"
 xmlns:xlink="http://www.w3.org/1999/xlink"
 xmlns:xodm="http://www.corel.com/coreldraw/odm/2003">
 <defs>
  <style type="text/css">
   <![CDATA[
    .fil0 {fill:#ADADAD}
   ]]>
  </style>
 </defs>
 <g id="Capa_x0020_1">
  <metadata id="CorelCorpID_0Corel-Layer"/>
  <g id="_2604666431424">
   <path class="fil0" d="M358.106 180.033c0,-9.348 8.967,-13.041 21.464,3.144 4.09,5.296 31.71,32.755 36.172,38.535 5.27,6.825 27.137,28.574 35.753,38.076 6.216,6.856 5.311,15.166 -5.499,15.166 -3.063,0 -9.75,-8.439 -12.085,-10.766 -4.167,-4.152 -6.819,-7.713 -10.986,-11.865 -1.979,-1.972 -3.91,-3.643 -5.674,-5.753 -7.949,-9.509 -33.863,-35.652 -38.423,-41.557 -3.439,-4.455 -7.801,-7.424 -11.185,-11.666 -5.156,-6.464 -9.537,-8.472 -9.537,-13.314zm-200.391 94.921c-7.128,0 -7.91,-3.712 -7.91,-7.909 0,-5.443 12.48,-16.089 16.49,-20.424l63.62 -68.216c11.709,-14.78 17.448,-0.97 17.448,-0.13 0,4.132 -1.731,5.489 -3.613,7.813l-16.813 18.342c-2.117,2.092 -3.652,3.579 -5.738,5.688 -2.376,2.401 -2.942,3.8 -5.239,6.187l-45.299 47.865c-3.261,3.389 -7.203,10.784 -12.946,10.784zm145.019 -96.679c-10.951,0 -16.227,-5.135 -23.101,-10.297 -6.614,-4.966 -12.617,-9.356 -18.965,-14.434l-38.041 -28.756c-6.556,-4.918 -12.34,-9.472 -18.959,-14.439l-47.51 -35.986c-3.03,-2.478 -7.232,-4.429 -7.232,-9.467 0,-4.722 4.524,-13.163 17.378,-2.437 2.992,2.496 6.002,4.593 8.989,6.831l115.521 87.506c5.829,4.412 5.146,5.658 12.799,5.658 5.642,0 62.518,-45.592 71.567,-52.358 12.232,-9.145 23.455,-17.809 35.533,-26.87 5.681,-4.262 33.772,-26.241 36.162,-26.241 2.225,0 4.624,0.798 5.917,1.993 9.437,8.731 -7.274,17.484 -13.451,22.114 -6.689,5.014 -12.392,9.512 -18.96,14.439l-75.962 57.632c-6.527,4.889 -12.884,9.276 -19.036,14.362 -5.671,4.686 -12.769,10.75 -22.649,10.75zm-174.023 -132.716l0 111.622c0,1.681 12.878,20.195 14.766,23.026 5.511,8.265 11.318,15.621 7.344,28.087 -3.011,9.443 -14.761,16.618 -23.877,23.584 -20.191,15.43 -19.361,12.222 -1.384,41.833 1.773,2.92 14.159,21.459 18.092,21.459l326.954 0c2.049,0 4.394,-2.346 4.394,-4.395l0 -249.61c0,-3.447 -4.347,-4.394 -7.91,-4.394l-331.348 0c-5.238,0 -7.031,3.547 -7.031,8.788z"/>
   <path class="fil0" d="M25 176.517c0,20.496 2.131,33.718 8.661,51.105l5.986 15.107c1.249,2.603 1.957,4.843 3.297,7.25 18.824,33.779 25.836,44.795 51.749,75.693 1.795,2.141 3.429,3.253 5.145,5.402 2.078,2.602 2.526,3.202 4.936,5.611l42.263 42.99c2.605,2.078 3.203,2.526 5.611,4.937 2.405,2.408 3.793,2.923 6.181,5.244 32.214,31.289 97.925,72.255 138.609,73.208 12.61,0.295 25.748,0.684 37.714,-3.64 11.384,-4.115 15.004,-11.357 20.918,-21.271 21.428,-35.923 25.368,-25.472 -24.332,-58.608 -4.445,-2.964 -41.409,-28.125 -43.066,-28.125 -13.325,0 -25.77,40.429 -45.703,40.429 -13.363,0 -14.109,-2.74 -29.282,-11.148 -3.827,-2.121 -6.917,-4.5 -10.623,-6.955 -4.037,-2.674 -6.512,-4.656 -10.078,-7.501 -3.42,-2.729 -6.307,-5.211 -9.66,-7.917l-18.36 -16.796c-1.662,-1.662 -2.684,-2.785 -4.377,-4.413 -2.194,-2.107 -3.418,-2.364 -5.263,-4.405 -1.68,-1.859 -1.945,-2.779 -3.966,-4.823l-13.112 -13.255c-17.236,-21.605 -21.396,-22.55 -37.077,-51.692 -4.259,-7.914 -4.98,-7.363 -4.98,-16.993 0,-12.615 11.064,-18.191 18.184,-24.005 4.008,-3.271 7.771,-6.255 11.821,-9.272 15.771,-11.749 12.616,-11.34 -2.406,-33.873l-35.505 -53.265c-7.392,-11.233 -9.651,-10.562 -19.507,-4.558 -26.489,16.136 -43.778,20.053 -43.778,55.539z"/>
  </g>
 </g>
</svg>
